<svg xmlns="http://www.w3.org/2000/svg" viewBox="0 0 477.85 464.52"><defs><style>.cls-1{fill:#fff;stroke:#fff;stroke-width:24px;}.cls-1,.cls-2{stroke-miterlimit:10;}.cls-2{stroke:#000;}</style></defs><g id="Capa_2" data-name="Capa 2"><g id="Capa_1-2" data-name="Capa 1"><rect class="cls-1" x="12" y="12" width="453.85" height="440.52" rx="23.52"/><path class="cls-2" d="M37.56,240.07V224c.09-.61.19-1.22.26-1.84.89-8.18,1.39-16.42,2.74-24.51A194.21,194.21,0,0,1,65.3,130.19a200.21,200.21,0,0,1,81.64-77.14A197.3,197.3,0,0,1,224,31.4c2.35-.17,4.69-.37,7-.56h15.73a11.57,11.57,0,0,0,1.53.24A190.5,190.5,0,0,1,281,35.27c37,8,69.39,24.95,96.7,51.14q52,49.88,61.05,121.56a197.08,197.08,0,0,1-1.46,58.74c-5.28,30.33-16.68,58.2-35,83q-54.73,74.16-146.69,83.15a192.2,192.2,0,0,1-60.94-4.16c-29.17-6.57-55.79-18.83-79.19-37.44Q45.76,335.79,38.11,246.78,37.83,243.44,37.56,240.07Zm19.89,2a180.89,180.89,0,0,0,34.88,97.55c8.51-4.85,16.61-9.8,25-14.15s17.2-8.1,25.86-12.14a249.59,249.59,0,0,1-13.68-71.26Zm362.91,0H351a248.25,248.25,0,0,1-14.07,72.57A268,268,0,0,1,385.26,340,181.53,181.53,0,0,0,420.36,242.11ZM141.47,155.73a267.13,267.13,0,0,1-51.72-27.39,181.24,181.24,0,0,0-32.29,93.95h72.06A249.5,249.5,0,0,1,141.47,155.73ZM388,128.34a267.28,267.28,0,0,1-49.54,26.52A247.87,247.87,0,0,1,351,222.27h69.37A181.19,181.19,0,0,0,388,128.34ZM318.41,308.1a227.47,227.47,0,0,0,12.92-66H248.8v54A267.29,267.29,0,0,1,318.41,308.1ZM162,307.3a266.67,266.67,0,0,1,33.08-7.74A274.68,274.68,0,0,1,229,296.08V242.13H149.32C148.53,255.16,155.93,293.26,162,307.3ZM319.85,161.62a267.28,267.28,0,0,1-71,12.47v48.2h82.3C332.19,211.84,324.56,170.87,319.85,161.62ZM149.18,222.29H229V174.08a267.31,267.31,0,0,1-69-11.81A228.51,228.51,0,0,0,149.18,222.29Zm164-79.16c-15.05-35.35-37-65.65-63.85-92.51l-.47.26V154.4A246.05,246.05,0,0,0,313.13,143.13ZM229,51.63c-26.44,27.13-47.74,57.24-62.25,92.16A245.74,245.74,0,0,0,229,154.4ZM248.81,315.8V414a10.61,10.61,0,0,0,2-1.2c2.75-2.8,5.5-5.62,8.17-8.5,20.44-22.13,37.57-46.52,50.36-73.87.6-1.26,1.16-2.55,1.81-4A243.63,243.63,0,0,0,248.81,315.8Zm-79.67,9.88c14.53,32.71,34.92,61,59.85,86.56V315.79A243.66,243.66,0,0,0,169.14,325.68ZM101.86,112.8a245.77,245.77,0,0,0,46.36,24.46,283.88,283.88,0,0,1,22.16-43.13,356.09,356.09,0,0,1,28.51-39C160.35,63.87,128.16,83.22,101.86,112.8Zm229.76,23.64A244.64,244.64,0,0,0,376,112.8c-25.84-29.06-57.39-48.25-95.08-57.34C301.81,79.9,319.1,106.59,331.62,136.44ZM150.48,332a244.2,244.2,0,0,0-45.35,23.2c26.09,27.83,57.44,46,94.88,54.55C179.59,386.06,162.87,360.52,150.48,332ZM329.7,333c-12.26,27.82-28.62,52.79-48.19,75.77,35.72-8.66,66-26.58,91.17-53.51A245.83,245.83,0,0,0,329.7,333Z"/></g></g></svg>